<svg class="icon" style="width: 1em; height: 1em;vertical-align: middle;fill: currentColor;overflow: hidden;" viewBox="0 0 1024 1024" version="1.1" xmlns="http://www.w3.org/2000/svg"><path d="M538.752 515.936c-197.344 63.808-302.368 237.664-311.04 252.512-61.12-67.84-98.368-157.568-98.368-255.872 0-3.904 0.064-7.808 0.192-11.712 16.736 0.352 202.176 2.72 393.28-54.464 10.944 21.44 21.408 43.2 31.04 64.928-5.056 1.44-10.08 2.944-15.072 4.544zM765.664 226.336c-6.88 9.792-64.48 87.232-200.544 138.24-62.72-115.2-132.192-209.856-142.784-224 28.768-6.944 58.784-10.624 89.664-10.624 97.216 0 186.08 36.48 253.664 96.416zM491.2 387.584c-179.008 47.52-336.64 46.848-353.76 46.624 24.8-118.752 104.832-217.44 211.904-267.936 10.08 13.824 78.464 108.608 141.888 221.312zM577.312 575.488c0.832-0.288 1.664-0.576 2.528-0.864 53.728 139.616 75.936 256.608 81.632 290.176-45.952 19.552-96.48 30.4-149.472 30.4-88.448 0-170.016-30.176-234.88-80.768 6.88-14.08 84.352-163.744 300.192-238.976zM852 0l-680 0c-94.592 0-172 77.408-172 172l0 680c0 94.592 77.408 172 172 172l680 0c94.592 0 172-77.408 172-172l0-680c0-94.592-77.408-172-172-172zM512 960c-247.04 0-448-200.96-448-448s200.96-448 448-448c247.04 0 448 200.96 448 448s-200.96 448-448 448zM651.456 556.96c119.904-19.2 225.28 12.224 238.368 16.352-17.056 106.464-78.176 198.432-164.032 256.48-3.936-23.264-24.288-135.296-74.336-272.832zM594.528 421.472c141.472-57.76 205.6-139.968 213.664-150.88 53.28 65.12 85.568 148.064 86.4 238.368-12.608-2.656-139.136-28.32-266.464-12.32-2.688-6.56-5.44-13.12-8.256-19.744-7.936-18.656-16.48-37.184-25.376-55.424z" fill="#999"/></svg>