<?xml version="1.0" encoding="utf-8"?>
<!-- Generator: Adobe Illustrator 19.2.0, SVG Export Plug-In . SVG Version: 6.00 Build 0)  -->
<svg version="1.1" xmlns="http://www.w3.org/2000/svg" xmlns:xlink="http://www.w3.org/1999/xlink" x="0px" y="0px"
	 viewBox="0 0 512 512" style="enable-background:new 0 0 512 512;" xml:space="preserve">
<g id="Layer_2">
</g>
<g id="Capa_1">
	<g>
		<path d="M424.7,0H83.3C36.2,0-2,38.2-2,85.3v341.3c0,47.1,38.2,85.3,85.3,85.3h341.4c47.1,0,85.3-38.2,85.3-85.3V85.3
			C510,38.2,471.8,0,424.7,0z M278.8,342.1c-23.3-1.8-33-13.3-51.2-24.4c-10,52.6-22.3,103-58.6,129.3
			c-11.2-79.5,16.5-139.2,29.3-202.6c-21.9-36.8,2.6-111,48.8-92.7c56.8,22.5-49.2,137,22,151.3c74.3,14.9,104.6-128.9,58.6-175.7
			c-66.6-67.5-193.8-1.5-178.2,95.2c3.8,23.7,28.2,30.8,9.8,63.5c-42.6-9.4-55.3-43-53.7-87.8c2.6-73.3,65.9-124.7,129.3-131.8
			c80.2-9,155.6,29.5,166,104.9C412.5,256.4,364.6,348.7,278.8,342.1z"/>
	</g>
</g>
</svg>
